HIERARCHY
ROOT root
{
	OFFSET	0	13.1	24.9
	CHANNELS 6  Xposition Yposition Zposition Xrotation Yrotation Zrotation
	JOINT spine_1
	{
		OFFSET	0	9.99999	0
		CHANNELS 3  Xrotation Yrotation Zrotation
		JOINT spine_2
		{
			OFFSET	0	112	-10
			CHANNELS 3  Xrotation Yrotation Zrotation
			JOINT spine_3
			{
				OFFSET	0	206.5	19.3
				CHANNELS 3  Xrotation Yrotation Zrotation
				JOINT spine_4
				{
					OFFSET	0	110.4	14.6
					CHANNELS 3  Xrotation Yrotation Zrotation
					JOINT neck_1
					{
						OFFSET	0	71.8	-50.3
						CHANNELS 3  Xrotation Yrotation Zrotation
						JOINT neck_2
						{
							OFFSET	0	86.2	-25.8
							CHANNELS 3  Xrotation Yrotation Zrotation
							JOINT head_ee
							{
								OFFSET	0	179.8	-8.7
								CHANNELS 3  Xrotation Yrotation Zrotation
								End Site
								{
									OFFSET	1	0	0
								}
							}
						}
					}
					JOINT left_clavicle
					{
						OFFSET	-43.2	22.4	-70.8
						CHANNELS 3  Xrotation Yrotation Zrotation
						JOINT left_shoulder
						{
							OFFSET	-93.9	-5.79999	48.7
							CHANNELS 3  Xrotation Yrotation Zrotation
							JOINT left_elbow
							{
								OFFSET	-291.4	-30.8	15.2
								CHANNELS 3  Xrotation Yrotation Zrotation
								JOINT left_lowarm_twist
								{
									OFFSET	-110.7	-3.89999	13.6
									CHANNELS 3  Xrotation Yrotation Zrotation
									JOINT left_hand
									{
										OFFSET	-110.7	-3.89999	13.6
										CHANNELS 3  Xrotation Yrotation Zrotation
										JOINT left_ee
										{
											OFFSET	-80.8	-5.10001	12.1
											CHANNELS 3  Xrotation Yrotation Zrotation
											End Site
											{
												OFFSET	1	0	0
											}
										}
									}
								}
							}
						}
					}
					JOINT right_clavicle
					{
						OFFSET	43.2	22.4	-70.8
						CHANNELS 3  Xrotation Yrotation Zrotation
						JOINT right_shoulder
						{
							OFFSET	93.9	-5.79999	48.7
							CHANNELS 3  Xrotation Yrotation Zrotation
							JOINT right_elbow
							{
								OFFSET	291.4	-30.8	15.2
								CHANNELS 3  Xrotation Yrotation Zrotation
								JOINT right_lowarm_twist
								{
									OFFSET	110.7	-3.89999	13.6
									CHANNELS 3  Xrotation Yrotation Zrotation
									JOINT right_hand
									{
										OFFSET	110.7	-3.89999	13.6
										CHANNELS 3  Xrotation Yrotation Zrotation
										JOINT right_ee
										{
											OFFSET	80.8	-5.10001	12.1
											CHANNELS 3  Xrotation Yrotation Zrotation
											End Site
											{
												OFFSET	1	0	0
											}
										}
									}
								}
							}
						}
					}
				}
			}
		}
	}
	JOINT left_hip
	{
		OFFSET	-82.8	-127.5	0.300001
		CHANNELS 3  Xrotation Yrotation Zrotation
		JOINT left_knee
		{
			OFFSET	-28.2	-396.7	2.2
			CHANNELS 3  Xrotation Yrotation Zrotation
			JOINT left_ankle
			{
				OFFSET	-11.7	-411.3	35.4
				CHANNELS 3  Xrotation Yrotation Zrotation
				JOINT left_toes
				{
					OFFSET	0	-60	-88.6
					CHANNELS 3  Xrotation Yrotation Zrotation
					JOINT left_foot_ee
					{
						OFFSET	-22.5	-16.5	-42.2
						CHANNELS 3  Xrotation Yrotation Zrotation
						End Site
						{
							OFFSET	1	0	0
						}
					}
				}
			}
		}
	}
	JOINT right_hip
	{
		OFFSET	82.8	-127.5	0.300001
		CHANNELS 3  Xrotation Yrotation Zrotation
		JOINT right_knee
		{
			OFFSET	28.2	-396.7	2.2
			CHANNELS 3  Xrotation Yrotation Zrotation
			JOINT right_ankle
			{
				OFFSET	11.7	-411.3	35.4
				CHANNELS 3  Xrotation Yrotation Zrotation
				JOINT right_toes
				{
					OFFSET	0	-60	-88.6
					CHANNELS 3  Xrotation Yrotation Zrotation
					JOINT right_foot_ee
					{
						OFFSET	22.5	-16.5	-42.2
						CHANNELS 3  Xrotation Yrotation Zrotation
						End Site
						{
							OFFSET	1	0	0
						}
					}
				}
			}
		}
	}
}
MOTION
Frames: 10
Frame Time: 0.02
3177.02 653.055 -1669.29 6.20119348989 48.0670446325 -15.5669914328 -2.18145 1.09873 5.2771 -2.16629 0.7612 5.33609 -2.07717 -0.572488 5.35955 -2.11712 0.279872 5.3827 -26.6022 14.2865 14.7879 -27.0282 21.7906 21.3982 -0.0 0.0 -0.0 -3.43991 22.4469 -2.21579 -12.0492 17.9144 73.03 0.742314 -20.1895 0.132158 -6.3556 -0.266812 0.766991 1.73436 13.3753 16.6256 -0.0 0.0 -0.0 12.4842 27.7421 -24.2779 17.8857 37.4168 -67.1777 2.29306 48.6342 -1.03629 65.8502 2.32152 7.62029 0.624667 0.828205 -3.8336 0.0 0.0 0.0 26.6017 36.3231 -10.6905 -14.3775 0.320234 2.17739 -5.81836 14.2621 0.866017 -11.181 0.0 0.0 -0.0 0.0 -0.0 -10.2965 39.4924 9.11397 -42.8331 0.656772 -6.39026 40.5985 -8.15934 4.91714 -12.0038 0.0 0.0 0.0 0.0 0.0 
3163.36361276 651.969 -1665.14390636 5.52040036661 47.6250271392 -14.9659851431 -2.10003 1.10026 5.26412 -2.08495 0.76355 5.32324 -1.99621 -0.559454 5.34847 -2.03598 0.291001 5.36971 -25.641 14.7019 13.8566 -26.1829 22.7427 20.5251 -0.0 0.0 -0.0 -2.82658 22.3915 -1.36356 -11.5186 16.5198 71.7814 0.72526 -19.762 0.126332 -6.13731 -0.256243 0.741155 1.77269 10.6386 15.9378 -0.0 0.0 -0.0 12.361 28.2186 -23.9352 17.7663 38.0131 -67.841 2.25609 48.1721 -1.00864 65.6852 2.30536 7.6066 0.761001 0.864622 -4.73362 0.0 0.0 0.0 27.3152 36.4678 -11.3378 -15.5892 0.322086 2.36328 -4.42023 13.7043 0.655661 -9.26964 0.0 0.0 -0.0 0.0 -0.0 -10.0857 38.8815 9.23433 -42.5943 0.640014 -6.35759 41.588 -10.9383 5.02133 -11.6798 0.0 0.0 0.0 0.0 0.0 
3150.37144521 653.682 -1661.93817575 5.34734085433 48.0698894872 -14.8027426589 -1.99994 0.997287 5.27463 -1.98472 0.660117 5.32719 -1.90627 -0.652779 5.32809 -1.94581 0.195633 5.36426 -25.8757 14.2066 13.1803 -26.4245 22.1008 19.7124 -0.0 0.0 -0.0 -2.75205 21.7993 -1.3715 -10.286 16.5348 71.4342 0.705097 -19.2535 0.119599 -6.00269 -0.249773 0.725202 1.67573 9.70872 14.9613 -0.0 0.0 -0.0 12.1858 28.5639 -23.4908 17.4552 37.5429 -67.8335 2.14239 46.6968 -0.924891 65.6483 2.30176 7.60354 0.767125 0.621856 -4.87469 0.0 0.0 0.0 27.1121 36.4801 -10.5217 -17.4737 0.317156 2.65237 -2.64682 12.9214 0.390798 -7.3927 0.0 0.0 -0.0 0.0 -0.0 -8.8296 37.3407 8.68074 -42.0245 0.600564 -6.27934 40.6883 -14.0134 4.97948 -11.1918 0.0 0.0 0.0 0.0 0.0 
3127.56498233 659.227 -1656.85258399 4.65542623212 48.1100945481 -13.8168080121 -1.96901 1.04567 5.22414 -1.95412 0.711604 5.27987 -1.87172 -0.587888 5.29503 -1.91074 0.254519 5.32141 -24.6957 14.7351 12.8075 -25.2885 23.0349 19.3353 -0.0 0.0 -0.0 -2.60722 21.207 -1.27552 -8.9719 16.7695 71.4237 0.752757 -20.4501 0.135784 -6.11374 -0.255107 0.738363 1.73722 9.83608 15.4173 -0.0 0.0 -0.0 11.0963 28.2226 -21.069 16.5884 38.8493 -68.6384 2.09704 46.085 -0.89206 66.2008 2.35597 7.64919 0.883609 0.365532 -5.76231 0.0 0.0 0.0 27.3161 36.5302 -10.5189 -19.854 0.297347 3.01703 -1.58302 12.2255 0.233004 -5.80733 0.0 0.0 -0.0 0.0 -0.0 -8.54029 37.2118 10.2291 -42.6586 0.644508 -6.36639 42.3898 -19.4632 5.23036 -10.4619 0.0 0.0 0.0 0.0 0.0 
3053.66148774 666.589 -1641.23721131 1.5449243147 46.6362217918 -8.96362568966 -1.34281 1.04379 4.78206 -1.33039 0.737749 4.83861 -1.25595 -0.402763 4.87784 -1.28894 0.371712 4.88029 -19.0761 14.0303 7.38846 -19.653 23.1918 12.6492 -0.0 0.0 -0.0 -1.84243 20.2159 -0.337869 -5.09698 14.8312 70.2538 1.03433 -27.1288 0.249557 -5.98229 -0.248797 0.722785 2.1121 11.5715 18.5347 -0.0 0.0 -0.0 9.82854 28.0381 -18.2524 14.1832 42.9179 -69.2085 1.67046 39.6045 -0.601516 66.4314 2.37873 7.66809 1.11355 -2.60557 -8.50593 0.0 0.0 0.0 29.4813 36.152 -11.5144 -26.6867 0.156645 4.05548 4.839 6.77508 -0.699393 -0.683157 0.0 0.0 -0.0 0.0 -0.0 -9.80875 34.2902 13.6795 -41.019 0.532867 -6.14033 42.3302 -24.9821 5.38541 -10.2132 0.0 0.0 0.0 0.0 0.0 
2982.75757928 667.163 -1638.43476727 -0.670620054246 45.382276226 -5.98954277386 -0.775408 1.00689 4.38643 -0.765 0.726012 4.44146 -0.700097 -0.278408 4.49169 -0.727979 0.433736 4.47939 -11.7681 12.9349 2.74825 -12.0273 22.7586 6.31778 -0.0 0.0 -0.0 -1.52855 21.0034 0.24345 -3.45163 10.083 69.1386 1.41548 -35.0356 0.446802 -4.76401 -0.19202 0.577729 2.57558 11.6186 21.7099 -0.0 0.0 -0.0 9.6515 28.0777 -17.8536 9.04956 44.4387 -68.7039 1.19404 30.6028 -0.326694 66.1723 2.35316 7.64685 1.49149 -4.60329 -11.827 0.0 0.0 0.0 28.1554 36.7277 -9.29911 -30.9155 0.00791277 4.68729 13.9334 4.34228 -1.95524 0.89592 -0.0 -0.0 -0.0 0.0 -0.0 -8.83286 33.856 14.5475 -42.9263 0.663355 -6.403 38.4491 -25.6326 5.03661 -12.0875 0.0 0.0 0.0 0.0 0.0 
2982.79294617 667.163 -1638.21291757 -0.671397588081 45.4477100633 -5.98845105377 -0.775408 1.00689 4.38643 -0.765 0.726012 4.44146 -0.700097 -0.278408 4.49169 -0.727979 0.433736 4.47939 -11.7681 12.9349 2.74825 -12.0273 22.7586 6.31778 -0.0 0.0 -0.0 -1.52855 21.0034 0.24345 -3.45163 10.083 69.1386 1.41548 -35.0356 0.446802 -4.76401 -0.19202 0.577729 2.57558 11.6186 21.7099 -0.0 0.0 -0.0 9.6515 28.0777 -17.8536 9.04956 44.4387 -68.7039 1.19404 30.6028 -0.326694 66.1723 2.35316 7.64685 1.49149 -4.60329 -11.827 0.0 0.0 0.0 28.1554 36.7277 -9.29911 -30.9155 0.00791277 4.68729 13.9334 4.34228 -1.95524 0.89592 -0.0 -0.0 -0.0 0.0 -0.0 -8.83286 33.856 14.5475 -42.9263 0.663355 -6.403 38.4491 -25.6326 5.03661 -12.0875 0.0 0.0 0.0 0.0 0.0 
2982.74824741 667.163 -1638.49357753 -0.670414409433 45.3649323278 -5.98983172158 -0.775408 1.00689 4.38643 -0.765 0.726012 4.44146 -0.700097 -0.278408 4.49169 -0.727979 0.433736 4.47939 -11.7681 12.9349 2.74825 -12.0273 22.7586 6.31778 -0.0 0.0 -0.0 -1.52855 21.0034 0.24345 -3.45163 10.083 69.1386 1.41548 -35.0356 0.446802 -4.76401 -0.19202 0.577729 2.57558 11.6186 21.7099 -0.0 0.0 -0.0 9.6515 28.0777 -17.8536 9.04956 44.4387 -68.7039 1.19404 30.6028 -0.326694 66.1723 2.35316 7.64685 1.49149 -4.60329 -11.827 0.0 0.0 0.0 28.1554 36.7277 -9.29911 -30.9155 0.00791277 4.68729 13.9334 4.34228 -1.95524 0.89592 -0.0 -0.0 -0.0 0.0 -0.0 -8.83286 33.856 14.5475 -42.9263 0.663355 -6.403 38.4491 -25.6326 5.03661 -12.0875 0.0 0.0 0.0 0.0 0.0 
2957.63266904 671.84 -1641.55606096 -1.51626038586 45.0210725511 -4.73439068353 -0.546429 0.986599 4.26214 -0.536608 0.713648 4.31614 -0.475345 -0.245457 4.36776 -0.501681 0.446761 4.35181 -6.38834 12.9748 2.1428 -6.3519 22.5023 4.67683 -0.0 0.0 -0.0 -1.63224 23.2438 0.4469 -2.29021 7.97938 68.1775 1.49937 -36.6005 0.495903 -4.75225 -0.191487 0.576323 2.49008 12.9502 21.5522 -0.0 0.0 -0.0 9.55019 27.9845 -17.6392 5.24473 44.5516 -68.0144 1.14438 29.5477 -0.301809 65.7177 2.30854 7.6093 1.6679 -6.03289 -13.5595 0.0 0.0 0.0 27.3392 36.752 -8.9889 -31.9176 -0.0341489 4.83532 15.1639 9.65863 -2.11558 1.36395 -0.0 -0.0 -0.0 0.0 -0.0 -9.3218 33.3582 14.7889 -41.1952 0.54455 -6.16477 36.6451 -26.6821 4.88678 -13.6001 0.0 0.0 0.0 0.0 0.0 
2957.69906839 671.84 -1641.03577347 -1.51987187772 45.1569250205 -4.72929118136 -0.546429 0.986599 4.26214 -0.536608 0.713648 4.31614 -0.475345 -0.245457 4.36776 -0.501681 0.446761 4.35181 -6.38834 12.9748 2.1428 -6.3519 22.5023 4.67683 -0.0 0.0 -0.0 -1.63224 23.2438 0.4469 -2.29021 7.97938 68.1775 1.49937 -36.6005 0.495903 -4.75225 -0.191487 0.576323 2.49008 12.9502 21.5522 -0.0 0.0 -0.0 9.55019 27.9845 -17.6392 5.24473 44.5516 -68.0144 1.14438 29.5477 -0.301809 65.7177 2.30854 7.6093 1.6679 -6.03289 -13.5595 0.0 0.0 0.0 27.3392 36.752 -8.9889 -31.9176 -0.0341489 4.83532 15.1639 9.65863 -2.11558 1.36395 -0.0 -0.0 -0.0 0.0 -0.0 -9.3218 33.3582 14.7889 -41.1952 0.54455 -6.16477 36.6451 -26.6821 4.88678 -13.6001 0.0 0.0 0.0 0.0 0.0 
